<svg xmlns="http://www.w3.org/2000/svg" xmlns:xlink="http://www.w3.org/1999/xlink" width="900" zoomAndPan="magnify" viewBox="0 0 675 404.99999" height="540" preserveAspectRatio="xMidYMid meet" version="1.2"><g id="736d1a4b58"><path style=" stroke:none;fill-rule:nonzero;fill:#000000;fill-opacity:1;" d="M 337.785156 9.390625 C 340.761719 10.710938 342.300781 12.695312 344.175781 15.226562 L 345.277344 16.550781 C 351.996094 25.25 358.492188 34.0625 364.550781 43.3125 C 365.652344 44.964844 366.863281 46.726562 367.964844 48.378906 C 376.777344 61.707031 385.257812 75.363281 392.085938 89.792969 L 393.1875 91.996094 C 394.175781 94.199219 395.167969 96.289062 396.269531 98.492188 L 397.8125 101.796875 C 401.558594 109.835938 404.972656 117.769531 407.945312 126.136719 C 408.9375 128.890625 409.925781 131.535156 411.027344 134.289062 C 412.019531 137.042969 412.792969 139.796875 413.5625 142.660156 C 414.003906 144.3125 414.554688 145.851562 415.105469 147.503906 C 416.425781 151.46875 417.308594 155.546875 418.296875 159.621094 L 418.847656 161.933594 C 419.179688 163.476562 419.507812 164.90625 419.839844 166.449219 C 420.171875 167.992188 420.609375 169.644531 420.941406 171.183594 L 421.492188 173.609375 L 422.042969 175.699219 C 422.375 177.792969 422.375 179.113281 421.710938 181.097656 C 420.28125 182.417969 418.847656 183.632812 417.308594 184.730469 C 416.425781 185.394531 415.542969 186.054688 414.664062 186.714844 L 413.34375 187.707031 C 411.027344 189.46875 408.9375 191.449219 406.734375 193.433594 C 405.300781 194.753906 403.871094 196.078125 402.328125 197.289062 C 387.898438 209.953125 376.335938 226.363281 367.414062 243.214844 L 366.644531 244.648438 L 365.980469 245.859375 C 365.210938 247.070312 364.328125 248.0625 363.230469 249.054688 C 359.703125 241.894531 356.289062 234.625 353.207031 227.246094 C 351.996094 224.492188 350.78125 221.738281 349.460938 218.984375 C 347.367188 214.578125 345.386719 210.285156 343.402344 205.878906 L 342.414062 203.675781 L 341.421875 201.582031 L 340.539062 199.710938 C 340.097656 198.71875 339.660156 197.507812 339.109375 196.078125 L 337.675781 196.078125 L 337.347656 197.289062 C 336.683594 199.710938 335.582031 201.804688 334.59375 204.117188 L 333.820312 205.660156 C 333.050781 207.3125 332.28125 209.074219 331.507812 210.726562 L 329.855469 214.140625 C 328.753906 216.453125 327.765625 218.765625 326.664062 221.078125 C 324.679688 225.261719 322.808594 229.449219 320.933594 233.632812 L 320.054688 235.507812 C 318.070312 239.800781 316.199219 243.988281 314.21875 248.28125 L 312.894531 248.28125 L 312.234375 246.960938 C 302.984375 230.21875 292.519531 215.351562 279.304688 201.472656 L 277.429688 199.492188 C 270.492188 192.332031 262.5625 186.605469 254.523438 180.878906 C 256.503906 160.722656 262.78125 137.8125 271.484375 119.53125 C 272.472656 117.4375 273.355469 115.234375 274.125 113.03125 C 278.53125 101.6875 284.148438 90.785156 289.984375 80.210938 C 290.648438 79.109375 291.199219 77.898438 291.859375 76.796875 C 300.890625 59.835938 311.902344 43.863281 323.25 28.335938 L 324.460938 26.683594 C 328.753906 20.734375 333.160156 14.898438 337.675781 9.0625 L 337.675781 9.390625 Z M 337.785156 9.390625 "/><path style=" stroke:none;fill-rule:nonzero;fill:#000000;fill-opacity:1;" d="M 554.871094 266.457031 C 560.707031 266.125 566.105469 267.117188 571.832031 268.21875 L 573.261719 268.546875 C 604.761719 274.824219 635.933594 285.398438 664.128906 300.820312 C 664.128906 301.808594 663.796875 302.910156 663.46875 304.234375 C 662.367188 305.664062 661.15625 306.984375 659.941406 308.199219 L 657.851562 310.402344 L 656.859375 311.503906 C 655.648438 312.714844 654.546875 314.035156 653.445312 315.355469 C 648.488281 321.085938 643.203125 326.699219 637.804688 332.097656 L 634.609375 335.292969 C 630.757812 339.148438 626.789062 342.78125 622.496094 346.195312 C 620.953125 347.40625 619.523438 348.730469 618.089844 350.050781 C 592.976562 372.628906 559.496094 388.378906 526.785156 395.429688 C 498.039062 401.15625 468.519531 400.605469 440.546875 391.683594 C 434.707031 389.699219 428.871094 387.609375 424.355469 383.203125 C 422.59375 381 420.941406 378.6875 419.507812 376.375 L 420.171875 375.050781 C 421.273438 374.722656 422.484375 374.5 423.914062 374.171875 L 426.339844 373.730469 L 428.871094 373.179688 C 435.808594 371.746094 442.417969 370.097656 449.027344 367.5625 L 450.570312 367.011719 C 470.945312 359.414062 489.449219 348.179688 505.417969 333.199219 C 506.410156 332.316406 507.289062 331.546875 508.28125 330.667969 C 513.015625 326.589844 517.203125 322.074219 521.167969 317.339844 L 522.929688 315.355469 C 533.503906 303.132812 542.3125 289.695312 550.023438 275.375 L 550.796875 274.054688 C 552.117188 271.523438 553.546875 268.988281 554.871094 266.457031 Z M 554.871094 266.457031 "/><path style=" stroke:none;fill-rule:nonzero;fill:#000000;fill-opacity:1;" d="M 122.023438 266.457031 L 122.796875 267.886719 C 132.046875 284.847656 141.847656 301.257812 154.734375 315.90625 C 155.507812 316.789062 156.277344 317.667969 157.046875 318.660156 L 157.046875 320.09375 L 159.140625 320.753906 C 159.691406 321.414062 160.351562 322.183594 161.125 322.957031 C 167.730469 330.667969 175.773438 337.054688 183.921875 343.113281 C 185.132812 343.992188 186.457031 344.984375 187.667969 345.976562 C 199.121094 354.566406 211.898438 360.84375 225.113281 366.128906 L 226.546875 366.679688 C 236.679688 370.648438 247.472656 373.070312 258.15625 375.050781 C 256.835938 378.464844 255.292969 381.441406 252.539062 383.972656 C 250.226562 385.625 247.914062 386.945312 245.378906 388.160156 L 243.949219 388.929688 C 240.09375 390.800781 236.238281 392.453125 232.164062 393.664062 L 229.960938 394.328125 C 201.433594 402.257812 170.265625 400.605469 141.738281 393.554688 C 106.382812 384.304688 75.324219 365.25 48.671875 340.6875 L 47.128906 339.367188 C 43.386719 336.0625 39.75 332.539062 36.226562 329.015625 L 34.792969 327.582031 C 31.710938 324.5 28.847656 321.304688 25.984375 318 L 23.890625 315.578125 C 20.144531 311.171875 16.402344 306.765625 12.988281 302.140625 C 15.410156 299.277344 18.273438 298.066406 21.578125 296.742188 L 24.660156 295.421875 L 26.3125 294.761719 C 28.074219 293.988281 29.949219 293.109375 31.710938 292.335938 C 38.648438 289.144531 45.699219 286.5 52.746094 283.746094 L 54.507812 283.085938 C 74.222656 275.265625 100.769531 265.792969 122.246094 266.566406 L 122.023438 266.566406 L 122.023438 266.453125 Z M 122.023438 266.457031 "/><path style=" stroke:none;fill-rule:nonzero;fill:#000000;fill-opacity:1;" d="M 100.65625 142.769531 C 145.265625 143.980469 195.375 158.078125 233.707031 181.097656 C 237.78125 183.628906 240.3125 185.722656 241.523438 187.484375 C 241.414062 189.246094 241.195312 190.898438 240.972656 192.664062 C 240.09375 199.160156 239.984375 205.546875 239.984375 212.15625 L 239.984375 213.917969 C 239.984375 229.117188 241.195312 244.425781 245.710938 259.074219 L 246.371094 261.277344 C 247.363281 264.472656 248.464844 267.667969 249.675781 270.75 C 250.226562 272.074219 250.554688 273.394531 250.554688 274.824219 C 247.363281 273.835938 244.5 272.511719 241.523438 270.972656 C 223.351562 261.71875 203.859375 256.542969 183.703125 253.789062 L 181.941406 253.570312 C 173.128906 252.359375 164.207031 252.136719 155.285156 252.136719 L 152.421875 252.136719 C 146.363281 252.136719 140.308594 252.359375 134.359375 252.796875 L 130.394531 252.796875 C 128.523438 251.367188 127.75 249.714844 126.871094 247.621094 L 125.988281 245.75 L 125.109375 243.65625 L 124.226562 241.453125 C 113.214844 215.460938 106.273438 187.707031 102.308594 159.839844 L 102.089844 158.296875 C 101.316406 153.121094 100.769531 148.054688 100.988281 142.769531 Z M 100.65625 142.769531 "/><path style=" stroke:none;fill-rule:nonzero;fill:#000000;fill-opacity:1;" d="M 576.238281 142.769531 C 576.457031 148.605469 575.6875 154.332031 574.804688 160.171875 L 574.585938 161.824219 C 572.050781 180.105469 568.085938 198.058594 562.46875 215.679688 L 561.367188 219.316406 C 557.84375 230.550781 553.328125 241.675781 548.042969 252.136719 L 525.902344 252.136719 C 511.804688 252.136719 498.257812 252.578125 484.492188 255.222656 C 483.71875 255.222656 482.949219 255.550781 482.070312 255.660156 C 464.777344 259.074219 446.492188 264.03125 431.40625 273.394531 C 430.414062 273.945312 429.203125 274.273438 427.878906 274.273438 C 428.539062 270.53125 429.3125 267.007812 430.523438 263.371094 C 432.394531 257.203125 433.71875 251.035156 434.707031 244.757812 L 435.039062 242.886719 C 436.691406 232.753906 436.910156 222.730469 436.910156 212.488281 L 436.910156 210.726562 C 436.910156 205.660156 436.800781 200.59375 436.472656 195.414062 L 436.472656 193.761719 C 436.25 192.773438 436.140625 191.78125 436.03125 190.789062 L 436.03125 187.15625 C 437.792969 184.953125 439.664062 184.070312 442.199219 183.078125 C 443.1875 182.417969 444.179688 181.867188 445.171875 181.207031 C 465.878906 168.980469 488.347656 160.390625 511.585938 154.222656 L 513.566406 153.671875 C 533.613281 148.386719 555.3125 142.878906 576.128906 143.210938 L 576.128906 142.769531 Z M 576.238281 142.769531 "/><path style=" stroke:none;fill-rule:nonzero;fill:#000000;fill-opacity:1;" d="M 279.304688 323.507812 C 274.015625 317.449219 269.390625 310.953125 265.425781 303.902344 L 264.214844 301.589844 L 262.890625 299.277344 C 262.339844 298.285156 261.902344 297.40625 261.351562 296.523438 C 259.699219 293.988281 258.046875 292.558594 255.402344 291.125 L 253.859375 290.355469 C 252.320312 289.472656 250.777344 288.59375 249.125 287.824219 L 247.691406 287.050781 C 245.820312 285.949219 243.949219 284.957031 242.074219 283.96875 L 240.09375 282.976562 C 233.375 279.453125 226.765625 276.257812 219.609375 273.835938 L 218.175781 273.285156 C 208.8125 270.089844 199.230469 267.777344 189.429688 266.125 L 187.226562 265.792969 C 176.652344 263.921875 166.191406 263.589844 155.507812 263.589844 L 145.484375 263.589844 C 141.960938 263.589844 138.546875 263.589844 135.019531 264.472656 C 135.019531 265.90625 135.242188 267.007812 135.683594 267.886719 L 136.5625 269.539062 L 137.554688 271.300781 L 138.65625 273.171875 C 144.273438 282.867188 150.550781 292.007812 157.378906 300.929688 L 158.371094 302.140625 C 162.996094 308.199219 168.171875 313.484375 173.570312 318.769531 L 174.890625 319.984375 C 176.875 321.964844 178.964844 323.835938 181.058594 325.710938 C 201.984375 343.882812 226.546875 356.109375 253.640625 361.835938 C 257.054688 362.496094 260.136719 363.597656 263.554688 362.496094 C 264.105469 361.394531 264.765625 360.402344 265.203125 359.300781 L 265.753906 357.980469 C 266.417969 356.546875 267.078125 355.007812 267.738281 353.574219 C 268.179688 352.582031 268.621094 351.480469 269.171875 350.492188 C 270.050781 348.398438 271.042969 346.304688 271.921875 344.324219 C 272.914062 342.121094 273.90625 339.917969 274.785156 337.824219 C 275.335938 336.613281 275.886719 335.402344 276.4375 334.191406 L 277.101562 332.648438 C 278.203125 330.226562 279.742188 327.691406 279.964844 324.9375 L 279.191406 323.617188 L 279.304688 323.617188 Z M 539.121094 263.480469 L 522.929688 263.480469 C 512.6875 263.480469 502.773438 263.703125 492.640625 265.355469 L 490.109375 265.792969 C 469.734375 269.207031 449.027344 275.488281 431.292969 286.390625 C 430.191406 287.050781 429.203125 287.710938 428.101562 288.371094 C 427.21875 288.921875 426.339844 289.472656 425.457031 290.023438 L 424.136719 290.796875 C 419.398438 293.769531 416.207031 296.855469 413.453125 301.808594 C 410.148438 307.539062 406.625 312.933594 402.65625 318.21875 L 401.335938 319.871094 L 400.125 321.414062 L 399.132812 322.738281 C 398.253906 324.167969 397.8125 325.160156 397.589844 326.8125 L 398.582031 329.125 C 399.464844 330.886719 400.34375 332.539062 401.226562 334.300781 L 402.328125 336.613281 C 403.648438 339.367188 404.972656 342.230469 406.183594 345.09375 C 406.953125 346.855469 407.726562 348.730469 408.496094 350.492188 C 408.9375 351.371094 409.265625 352.363281 409.707031 353.246094 C 410.257812 354.566406 410.808594 356 411.46875 357.320312 C 411.691406 357.761719 411.800781 358.199219 412.019531 358.53125 C 412.679688 360.074219 413.339844 361.394531 414.113281 362.605469 L 415.433594 363.265625 L 418.957031 363.265625 C 443.519531 358.640625 466.207031 349.28125 486.253906 334.300781 L 487.574219 333.308594 C 494.183594 328.464844 500.019531 323.175781 505.636719 317.339844 L 506.738281 316.128906 C 521.058594 301.257812 533.613281 284.078125 542.425781 265.242188 C 540.992188 264.363281 539.890625 263.8125 539.011719 263.703125 Z M 539.121094 263.480469 "/><path style=" stroke:none;fill-rule:nonzero;fill:#000000;fill-opacity:1;" d="M 252.539062 194.976562 C 255.953125 195.964844 258.15625 197.949219 260.6875 200.261719 L 262.011719 201.472656 C 269.5 208.191406 276.660156 215.128906 282.71875 223.171875 L 283.597656 224.273438 C 291.308594 234.292969 298.136719 244.867188 303.421875 256.210938 C 303.863281 257.09375 304.304688 257.972656 304.855469 258.855469 L 305.625 260.289062 L 306.398438 261.609375 C 306.726562 262.492188 306.835938 263.480469 306.726562 264.472656 C 305.957031 267.117188 304.855469 269.648438 303.753906 272.183594 L 302.984375 273.945312 C 302.210938 275.707031 301.441406 277.578125 300.558594 279.339844 L 299.015625 282.867188 C 298.027344 285.179688 296.925781 287.492188 295.933594 289.804688 C 294.390625 293.4375 292.738281 296.964844 291.199219 300.597656 C 289.546875 304.34375 287.894531 308.085938 286.132812 311.722656 C 285.359375 311.390625 284.367188 310.953125 283.378906 310.402344 C 267.40625 290.90625 258.265625 265.683594 253.972656 241.125 C 252.207031 230.441406 251.769531 220.085938 251.65625 209.292969 L 251.65625 206.648438 C 251.65625 202.683594 251.65625 198.828125 252.429688 194.863281 L 252.539062 194.863281 Z M 252.539062 194.976562 "/><path style=" stroke:none;fill-rule:nonzero;fill:#000000;fill-opacity:1;" d="M 422.261719 195.636719 C 423.253906 195.746094 424.136719 195.964844 425.015625 196.296875 C 425.347656 219.09375 424.464844 235.835938 422.261719 246.410156 L 421.824219 248.613281 C 419.070312 261.277344 414.882812 273.285156 409.265625 284.957031 L 408.054688 287.492188 C 403.980469 295.972656 399.023438 304.671875 392.746094 311.722656 L 391.3125 311.722656 C 382.832031 293.109375 376.886719 279.890625 373.582031 272.292969 L 372.589844 270.089844 L 371.710938 268.105469 L 370.9375 266.457031 C 370.609375 265.464844 370.609375 264.363281 370.71875 263.152344 C 374.574219 249.714844 383.164062 237.269531 391.863281 226.363281 L 393.40625 224.492188 C 401.117188 214.910156 409.597656 205.769531 419.289062 198.058594 C 420.28125 197.289062 421.273438 196.40625 422.152344 195.414062 L 422.152344 195.636719 Z M 422.261719 195.636719 "/><path style=" stroke:none;fill-rule:nonzero;fill:#000000;fill-opacity:1;" d="M 337.347656 234.855469 L 338.589844 234.855469 L 410.984375 386.066406 L 377.679688 386.066406 L 365.683594 359.796875 L 310.042969 359.796875 L 298.457031 386.066406 L 265.148438 386.066406 L 337.335938 234.855469 Z M 356.179688 337.449219 C 349.351562 321.933594 342.730469 306.214844 338.183594 293.1875 C 333.84375 303.527344 325.980469 323.386719 319.777344 337.449219 Z M 356.179688 337.449219 "/><path style=" stroke:none;fill-rule:nonzero;fill:#000000;fill-opacity:1;" d="M 267.296875 103.121094 C 258.597656 125.808594 250.445312 149.046875 246.589844 173.167969 L 214.871094 156.648438 C 207.382812 154.332031 199.671875 150.039062 192.511719 147.394531 C 187.777344 145.742188 180.839844 144.3125 175.882812 143.429688 C 175.441406 142.988281 175.550781 140.234375 175.882812 136.601562 C 176.542969 129.882812 178.085938 120.191406 178.304688 117.769531 C 180.289062 99.042969 182.492188 80.652344 187.335938 62.367188 C 187.335938 62.367188 200.222656 62.808594 251.105469 93.207031 C 252.871094 94.308594 254.632812 95.628906 256.835938 97.0625 C 257.386719 97.390625 259.039062 98.273438 261.019531 99.15625 C 261.238281 99.15625 261.460938 99.375 261.679688 99.484375 C 263.554688 100.585938 265.425781 101.796875 267.296875 103.007812 Z M 267.296875 103.121094 "/><path style=" stroke:none;fill-rule:nonzero;fill:#000000;fill-opacity:1;" d="M 504.425781 143.429688 C 500.460938 143.429688 496.605469 144.972656 492.863281 146.074219 C 482.289062 149.265625 469.734375 154.003906 459.820312 158.738281 C 450.898438 163.035156 442.640625 168.871094 433.605469 173.058594 C 430.964844 149.597656 422.042969 127.460938 414.222656 105.433594 C 414.222656 104.769531 414.222656 104.109375 414.664062 103.449219 C 415.875 102.679688 416.976562 102.019531 418.078125 101.246094 C 470.0625 69.195312 488.566406 64.019531 492.972656 63.140625 C 496.277344 80.652344 501.234375 98.824219 503.105469 116.445312 C 503.765625 122.503906 503.984375 129.441406 504.097656 135.941406 C 504.097656 138.472656 504.097656 141.007812 504.316406 143.429688 Z M 504.425781 143.429688 "/></g></svg>