<?xml version="1.0" encoding="UTF-8"?>
<svg id="Layer_1" data-name="Layer 1" xmlns="http://www.w3.org/2000/svg" viewBox="0 0 1080 1080">
  <defs>
    <style>
      .cls-1 {
        fill: #b55d8d;
      }

      .cls-2 {
        isolation: isolate;
      }

      .cls-3 {
        fill: #b65e8e;
      }

      .cls-4 {
        fill: #bb93b6;
      }

      .cls-5 {
        fill: #eda7be;
      }

      .cls-6 {
        fill: #f1acc1;
      }

      .cls-7 {
        fill: #b65f8e;
      }

      .cls-8 {
        fill: #f0a8be;
      }

      .cls-9 {
        fill: #b78eb4;
      }
    </style>
  </defs>
  <g id="Layer_2" data-name="Layer 2">
    <g>
      <path class="cls-5" d="M539.3,363.01c2.7,1.2,4.1,3,5.8,5.3l1,1.2c6.1,7.9,12,15.9,17.5,24.3,1,1.5,2.1,3.1,3.1,4.6,8,12.1,15.7,24.5,21.9,37.6l1,2c.9,2,1.8,3.9,2.8,5.9l1.4,3c3.4,7.3,6.5,14.5,9.2,22.1.9,2.5,1.8,4.9,2.8,7.4.9,2.5,1.6,5,2.3,7.6.4,1.5.9,2.9,1.4,4.4,1.2,3.6,2,7.3,2.9,11l.5,2.1c.3,1.4.6,2.7.9,4.1.3,1.4.7,2.9,1,4.3l.5,2.2.5,1.9c.3,1.9.3,3.1-.3,4.9-1.3,1.2-2.6,2.3-4,3.3-.8.6-1.6,1.2-2.4,1.8l-1.2.9c-2.1,1.6-4,3.4-6,5.2-1.3,1.2-2.6,2.4-4,3.5-13.1,11.5-23.6,26.4-31.7,41.7l-.7,1.3-.6,1.1c-.7,1.1-1.5,2-2.5,2.9-3.2-6.5-6.3-13.1-9.1-19.8-1.1-2.5-2.2-5-3.4-7.5-1.9-4-3.7-7.9-5.5-11.9l-.9-2-.9-1.9-.8-1.7c-.4-.9-.8-2-1.3-3.3h-1.3l-.3,1.1c-.6,2.2-1.6,4.1-2.5,6.2l-.7,1.4c-.7,1.5-1.4,3.1-2.1,4.6l-1.5,3.1c-1,2.1-1.9,4.2-2.9,6.3-1.8,3.8-3.5,7.6-5.2,11.4l-.8,1.7c-1.8,3.9-3.5,7.7-5.3,11.6h-1.2l-.6-1.2c-8.4-15.2-17.9-28.7-29.9-41.3l-1.7-1.8c-6.3-6.5-13.5-11.7-20.8-16.9,1.8-18.3,7.5-39.1,15.4-55.7.9-1.9,1.7-3.9,2.4-5.9,4-10.3,9.1-20.2,14.4-29.8.6-1,1.1-2.1,1.7-3.1,8.2-15.4,18.2-29.9,28.5-44l1.1-1.5c3.9-5.4,7.9-10.7,12-16h0v.3h.1Z"/>
      <path class="cls-9" d="M736.4,596.41c5.3-.3,10.2.6,15.4,1.6l1.3.3c28.6,5.7,56.9,15.3,82.5,29.3,0,.9-.3,1.9-.6,3.1-1,1.3-2.1,2.5-3.2,3.6l-1.9,2-.9,1c-1.1,1.1-2.1,2.3-3.1,3.5-4.5,5.2-9.3,10.3-14.2,15.2l-2.9,2.9c-3.5,3.5-7.1,6.8-11,9.9-1.4,1.1-2.7,2.3-4,3.5-22.8,20.5-53.2,34.8-82.9,41.2-26.1,5.2-52.9,4.7-78.3-3.4-5.3-1.8-10.6-3.7-14.7-7.7-1.6-2-3.1-4.1-4.4-6.2l.6-1.2c1-.3,2.1-.5,3.4-.8l2.2-.4,2.3-.5c6.3-1.3,12.3-2.8,18.3-5.1l1.4-.5c18.5-6.9,35.3-17.1,49.8-30.7.9-.8,1.7-1.5,2.6-2.3,4.3-3.7,8.1-7.8,11.7-12.1l1.6-1.8c9.6-11.1,17.6-23.3,24.6-36.3l.7-1.2c1.2-2.3,2.5-4.6,3.7-6.9h0Z"/>
      <path class="cls-4" d="M343.4,596.41l.7,1.3c8.4,15.4,17.3,30.3,29,43.6.7.8,1.4,1.6,2.1,2.5v1.3l1.9.6c.5.6,1.1,1.3,1.8,2,6,7,13.3,12.8,20.7,18.3,1.1.8,2.3,1.7,3.4,2.6,10.4,7.8,22,13.5,34,18.3l1.3.5c9.2,3.6,19,5.8,28.7,7.6-1.2,3.1-2.6,5.8-5.1,8.1-2.1,1.5-4.2,2.7-6.5,3.8l-1.3.7c-3.5,1.7-7,3.2-10.7,4.3l-2,.6c-25.9,7.2-54.2,5.7-80.1-.7-32.1-8.4-60.3-25.7-84.5-48l-1.4-1.2c-3.4-3-6.7-6.2-9.9-9.4l-1.3-1.3c-2.8-2.8-5.4-5.7-8-8.7l-1.9-2.2c-3.4-4-6.8-8-9.9-12.2,2.2-2.6,4.8-3.7,7.8-4.9l2.8-1.2,1.5-.6c1.6-.7,3.3-1.5,4.9-2.2,6.3-2.9,12.7-5.3,19.1-7.8l1.6-.6c17.9-7.1,42-15.7,61.5-15h-.2v-.1Z"/>
      <path class="cls-6" d="M324,484.11c40.5,1.1,86,13.9,120.8,34.8,3.7,2.3,6,4.2,7.1,5.8-.1,1.6-.3,3.1-.5,4.7-.8,5.9-.9,11.7-.9,17.7v1.6c0,13.8,1.1,27.7,5.2,41l.6,2c.9,2.9,1.9,5.8,3,8.6.5,1.2.8,2.4.8,3.7-2.9-.9-5.5-2.1-8.2-3.5-16.5-8.4-34.2-13.1-52.5-15.6l-1.6-.2c-8-1.1-16.1-1.3-24.2-1.3h-2.6c-5.5,0-11,.2-16.4.6h-3.6c-1.7-1.3-2.4-2.8-3.2-4.7l-.8-1.7-.8-1.9-.8-2c-10-23.6-16.3-48.8-19.9-74.1l-.2-1.4c-.7-4.7-1.2-9.3-1-14.1h-.3Z"/>
      <path class="cls-8" d="M755.8,484.11c.2,5.3-.5,10.5-1.3,15.8l-.2,1.5c-2.3,16.6-5.9,32.9-11,48.9l-1,3.3c-3.2,10.2-7.3,20.3-12.1,29.8h-20.1c-12.8,0-25.1.4-37.6,2.8-.7,0-1.4.3-2.2.4-15.7,3.1-32.3,7.6-46,16.1-.9.5-2,.8-3.2.8.6-3.4,1.3-6.6,2.4-9.9,1.7-5.6,2.9-11.2,3.8-16.9l.3-1.7c1.5-9.2,1.7-18.3,1.7-27.6v-1.6c0-4.6-.1-9.2-.4-13.9v-1.5c-.2-.9-.3-1.8-.4-2.7v-3.3c1.6-2,3.3-2.8,5.6-3.7.9-.6,1.8-1.1,2.7-1.7,18.8-11.1,39.2-18.9,60.3-24.5l1.8-.5c18.2-4.8,37.9-9.8,56.8-9.5h0v-.4h.1Z"/>
      <path class="cls-3" d="M486.2,648.21c-4.8-5.5-9-11.4-12.6-17.8l-1.1-2.1-1.2-2.1c-.5-.9-.9-1.7-1.4-2.5-1.5-2.3-3-3.6-5.4-4.9l-1.4-.7c-1.4-.8-2.8-1.6-4.3-2.3l-1.3-.7c-1.7-1-3.4-1.9-5.1-2.8l-1.8-.9c-6.1-3.2-12.1-6.1-18.6-8.3l-1.3-.5c-8.5-2.9-17.2-5-26.1-6.5l-2-.3c-9.6-1.7-19.1-2-28.8-2h-9.1c-3.2,0-6.3,0-9.5.8,0,1.3.2,2.3.6,3.1l.8,1.5.9,1.6,1,1.7c5.1,8.8,10.8,17.1,17,25.2l.9,1.1c4.2,5.5,8.9,10.3,13.8,15.1l1.2,1.1c1.8,1.8,3.7,3.5,5.6,5.2,19,16.5,41.3,27.6,65.9,32.8,3.1.6,5.9,1.6,9,.6.5-1,1.1-1.9,1.5-2.9l.5-1.2c.6-1.3,1.2-2.7,1.8-4,.4-.9.8-1.9,1.3-2.8.8-1.9,1.7-3.8,2.5-5.6.9-2,1.8-4,2.6-5.9.5-1.1,1-2.2,1.5-3.3l.6-1.4c1-2.2,2.4-4.5,2.6-7l-.7-1.2h.1v-.1ZM722.1,593.71h-14.7c-9.3,0-18.3.2-27.5,1.7l-2.3.4c-18.5,3.1-37.3,8.8-53.4,18.7-1,.6-1.9,1.2-2.9,1.8-.8.5-1.6,1-2.4,1.5l-1.2.7c-4.3,2.7-7.2,5.5-9.7,10-3,5.2-6.2,10.1-9.8,14.9l-1.2,1.5-1.1,1.4-.9,1.2c-.8,1.3-1.2,2.2-1.4,3.7l.9,2.1c.8,1.6,1.6,3.1,2.4,4.7l1,2.1c1.2,2.5,2.4,5.1,3.5,7.7.7,1.6,1.4,3.3,2.1,4.9.4.8.7,1.7,1.1,2.5.5,1.2,1,2.5,1.6,3.7.2.4.3.8.5,1.1.6,1.4,1.2,2.6,1.9,3.7l1.2.6h3.2c22.3-4.2,42.9-12.7,61.1-26.3l1.2-.9c6-4.4,11.3-9.2,16.4-14.5l1-1.1c13-13.5,24.4-29.1,32.4-46.2-1.3-.8-2.3-1.3-3.1-1.4h0l.1-.2Z"/>
      <path class="cls-3" d="M461.9,531.51c3.1.9,5.1,2.7,7.4,4.8l1.2,1.1c6.8,6.1,13.3,12.4,18.8,19.7l.8,1c7,9.1,13.2,18.7,18,29,.4.8.8,1.6,1.3,2.4l.7,1.3.7,1.2c.3.8.4,1.7.3,2.6-.7,2.4-1.7,4.7-2.7,7l-.7,1.6c-.7,1.6-1.4,3.3-2.2,4.9l-1.4,3.2c-.9,2.1-1.9,4.2-2.8,6.3-1.4,3.3-2.9,6.5-4.3,9.8-1.5,3.4-3,6.8-4.6,10.1-.7-.3-1.6-.7-2.5-1.2-14.5-17.7-22.8-40.6-26.7-62.9-1.6-9.7-2-19.1-2.1-28.9v-2.4c0-3.6,0-7.1.7-10.7h.1v.1Z"/>
      <path class="cls-1" d="M616,532.11c.9.1,1.7.3,2.5.6.3,20.7-.5,35.9-2.5,45.5l-.4,2c-2.5,11.5-6.3,22.4-11.4,33l-1.1,2.3c-3.7,7.7-8.2,15.6-13.9,22h-1.3c-7.7-16.9-13.1-28.9-16.1-35.8l-.9-2-.8-1.8-.7-1.5c-.3-.9-.3-1.9-.2-3,3.5-12.2,11.3-23.5,19.2-33.4l1.4-1.7c7-8.7,14.7-17,23.5-24,.9-.7,1.8-1.5,2.6-2.4h0v.2h.1Z"/>
      <g class="cls-2">
        <g class="cls-2">
          <g class="cls-2">
            <path class="cls-7" d="M538.9,567.72h1.13l65.73,137.29h-30.24l-10.89-23.85h-50.52l-10.52,23.85h-30.24l65.54-137.29ZM556,660.87c-6.2-14.09-12.21-28.36-16.34-40.19-3.94,9.39-11.08,27.42-16.71,40.19h33.05Z"/>
          </g>
        </g>
      </g>
      <path class="cls-8" d="M475.3,448.11c-7.9,20.6-15.3,41.7-18.8,63.6l-28.8-15c-6.8-2.1-13.8-6-20.3-8.4-4.3-1.5-10.6-2.8-15.1-3.6-.4-.4-.3-2.9,0-6.2.6-6.1,2-14.9,2.2-17.1,1.8-17,3.8-33.7,8.2-50.3,0,0,11.7.4,57.9,28,1.6,1,3.2,2.2,5.2,3.5.5.3,2,1.1,3.8,1.9.2,0,.4.2.6.3,1.7,1,3.4,2.1,5.1,3.2h0v.1Z"/>
      <path class="cls-8" d="M690.6,484.71c-3.6,0-7.1,1.4-10.5,2.4-9.6,2.9-21,7.2-30,11.5-8.1,3.9-15.6,9.2-23.8,13-2.4-21.3-10.5-41.4-17.6-61.4,0-.6,0-1.2.4-1.8,1.1-.7,2.1-1.3,3.1-2,47.2-29.1,64-33.8,68-34.6,3,15.9,7.5,32.4,9.2,48.4.6,5.5.8,11.8.9,17.7,0,2.3,0,4.6.2,6.8h.1Z"/>
    </g>
  </g>
</svg>